<svg width="100" height="100" viewBox="0 0 100 100" fill="none" xmlns="http://www.w3.org/2000/svg">
<rect width="100" height="100" fill="#0FAC71"/>
<path d="M53.9494 83.5398C54.5019 83.5402 54.95 83.0924 54.9501 82.5399L54.953 37.9617C54.953 37.0526 56.0679 36.6152 56.6861 37.2818L74.1143 56.0714C74.5098 56.4978 75.1843 56.498 75.5801 56.072L80.8682 50.3797C81.2245 49.9962 81.2247 49.4028 80.8687 49.019L50.9737 16.7904C50.578 16.3639 49.9032 16.3639 49.5075 16.7904L19.631 48.9925C19.2751 49.3761 19.2751 49.9692 19.631 50.3528L24.9199 56.054C25.3156 56.4806 25.9906 56.4805 26.3862 56.0539L43.8137 37.2621C44.4319 36.5954 45.5469 37.0329 45.5469 37.9421V82.5345C45.5469 83.0865 45.9942 83.5341 46.5462 83.5345L53.9494 83.5398Z" fill="#312E33" stroke="#312E33" stroke-width="10"/>
</svg>
