<svg width="100" height="100" viewBox="0 0 100 100" fill="none" xmlns="http://www.w3.org/2000/svg">
<rect width="100" height="100" fill="#FED440"/>
<path d="M81.6549 47.5512C81.6557 46.4462 80.7601 45.5499 79.6551 45.5499L41.8379 45.5472C40.056 45.5471 39.1639 43.3927 40.4239 42.1329L55.4928 27.0663C56.2736 26.2857 56.2741 25.0201 55.4939 24.2388L51.6766 20.4161C50.8958 19.6342 49.6287 19.6337 48.8473 20.4151L20.4143 48.8452C19.6332 49.6262 19.6331 50.8926 20.4141 51.6737L48.8233 80.0856C49.6043 80.8668 50.8707 80.8668 51.6518 80.0857L55.4762 76.2613C56.2573 75.4802 56.2572 74.2137 55.476 73.4327L40.4061 58.3676C39.1459 57.1077 40.0382 54.9531 41.8201 54.9531H79.6513C80.7554 54.9531 81.6506 54.0585 81.6513 52.9545L81.6549 47.5512Z" fill="#312E33" stroke="#312E33" stroke-width="10"/>
</svg>
