<svg width="100" height="100" viewBox="0 0 100 100" fill="none" xmlns="http://www.w3.org/2000/svg">
<rect x="100" y="100" width="100" height="100" transform="rotate(-180 100 100)" fill="#FED440"/>
<path d="M18.3451 52.4488C18.3443 53.5538 19.2399 54.4501 20.3449 54.4501L58.1621 54.4528C59.944 54.4529 60.8361 56.6073 59.5761 57.8671L44.5072 72.9337C43.7264 73.7143 43.7259 74.9799 44.5061 75.7612L48.3234 79.5839C49.1042 80.3658 50.3713 80.3663 51.1527 79.5849L79.5857 51.1548C80.3668 50.3738 80.3669 49.1074 79.5859 48.3263L51.1767 19.9144C50.3957 19.1332 49.1293 19.1332 48.3482 19.9143L44.5238 23.7387C43.7427 24.5198 43.7428 25.7863 44.524 26.5673L59.5939 41.6324C60.8541 42.8923 59.9618 45.0469 58.1799 45.0469H20.3487C19.2446 45.0469 18.3494 45.9415 18.3487 47.0455L18.3451 52.4488Z" fill="#312E33" stroke="#312E33" stroke-width="10"/>
</svg>
